<svg xmlns="http://www.w3.org/2000/svg" xmlns:xlink="http://www.w3.org/1999/xlink" width="216.0028137423857" height="221.36901166456227" viewBox="0 0 216.0028137423857 221.36901166456227" fill="none"><rect x="0" y="0" width="0" height="0" fill="rgba(249, 249, 249, 1)" /><path id="圆形 1" fill-rule="evenodd" style="fill:#D43030" transform="translate(96.00281374238571 0)  rotate(-45 60 60)" opacity="1" d="M109.89,26.67C103.3,16.8 93.92,9.11 82.96,4.57C72,0.03 59.93,-1.16 48.29,1.15C36.66,3.47 25.96,9.18 17.57,17.57C9.18,25.96 3.47,36.66 1.15,48.29C-1.16,59.93 0.03,72 4.57,82.96C9.11,93.92 16.8,103.3 26.67,109.89C36.53,116.48 48.13,120 60,120L60,102.01C51.69,102.01 43.57,99.55 36.66,94.93C29.75,90.32 24.36,83.76 21.18,76.08C18,68.4 17.17,59.95 18.79,51.8C20.41,43.65 24.42,36.17 30.29,30.29C36.17,24.42 43.65,20.41 51.8,18.79C59.95,17.17 68.4,18 76.08,21.18C83.76,24.36 90.32,29.75 94.93,36.66C99.55,43.57 102.01,51.69 102.01,60L120,60C120,48.13 116.48,36.53 109.89,26.67Z " /><path id="圆形 1" fill-rule="evenodd" style="fill:#43CF7C" transform="translate(80.15 101.36901166456227)  rotate(0 60 60)" opacity="1" d="M82.96,4.57C72,0.03 59.93,-1.16 48.29,1.15C36.66,3.47 25.96,9.18 17.57,17.57C9.18,25.96 3.47,36.66 1.15,48.29C-1.16,59.93 0.03,72 4.57,82.96C9.11,93.92 16.8,103.3 26.67,109.89C36.53,116.48 48.13,120 60,120L60,102.01C51.69,102.01 43.57,99.55 36.66,94.93C29.75,90.32 24.36,83.76 21.18,76.08C18,68.4 17.17,59.95 18.79,51.8C20.41,43.65 24.42,36.17 30.29,30.29C36.17,24.42 43.65,20.41 51.8,18.79C59.95,17.17 68.4,18 76.08,21.18C83.76,24.36 90.32,29.75 94.93,36.66C99.55,43.57 102.01,51.69 102.01,60L120,60C120,48.13 116.48,36.53 109.89,26.67C103.3,16.8 93.92,9.11 82.96,4.57Z " /><path id="圆形 1" fill-rule="evenodd" style="fill:#2A82E4" transform="translate(0 35.21901166456226)  rotate(135 60 60)" opacity="1" d="M109.89,26.67C103.3,16.8 93.92,9.11 82.96,4.57C72,0.03 59.93,-1.16 48.29,1.15C36.66,3.47 25.96,9.18 17.57,17.57C9.18,25.96 3.47,36.66 1.15,48.29C-1.16,59.93 0.03,72 4.57,82.96C9.11,93.92 16.8,103.3 26.67,109.89C36.53,116.48 48.13,120 60,120L60,102.01C51.69,102.01 43.57,99.55 36.66,94.93C29.75,90.32 24.36,83.76 21.18,76.08C18,68.4 17.17,59.95 18.79,51.8C20.41,43.65 24.42,36.17 30.29,30.29C36.17,24.42 43.65,20.41 51.8,18.79C59.95,17.17 68.4,18 76.08,21.18C83.76,24.36 90.32,29.75 94.93,36.66C99.55,43.57 102.01,51.69 102.01,60L120,60C120,48.13 116.48,36.53 109.89,26.67Z " /><path id="圆形 1" fill-rule="evenodd" style="fill:#D43030" transform="translate(96.00281374238571 0.22182540694797126)  rotate(-45 60 60)" opacity="1" d="M24.91,36.89C30.14,28.95 37.91,23.01 46.96,20.06C56,17.11 65.78,17.31 74.69,20.64C83.6,23.96 91.12,30.21 96.02,38.37L111.44,29.11C104.44,17.46 93.7,8.53 80.98,3.79C68.25,-0.96 54.29,-1.25 41.37,2.96C28.46,7.18 17.36,15.66 9.89,27C2.42,38.35 -0.98,51.89 0.25,65.42L18.16,63.79C17.3,54.32 19.68,44.84 24.91,36.89Z " /></svg>